<svg xmlns="http://www.w3.org/2000/svg" viewBox="0 0 29.722 27.922">
    <defs>
        <style>
            .cls-1{fill:#fff}
        </style>
    </defs>
    <path id="Forma_1" d="M37.116 190.47a.839.839 0 0 1-.857-.827v-4.777h-2.71v4.777a.833.833 0 0 1-.825.827h-7.789a.833.833 0 0 1-.825-.827v-12.168a.841.841 0 0 1 1.682 0v11.311h6.06v-4.777a.866.866 0 0 1 .872-.84h4.392a.845.845 0 0 1 .825.84v4.777h6.075v-11.7a.841.841 0 1 1 1.681 0v12.556a.832.832 0 0 1-.825.827zm11.2-12.358L34.92 164.6l-13.426 13.386a.836.836 0 1 1-1.184-1.186l14-13.991a.846.846 0 0 1 .608-.265.818.818 0 0 1 .576.265l5.576 5.6v-2.929a.836.836 0 0 1 .826-.853.856.856 0 0 1 .872.853v4.625l6.76 6.782a.882.882 0 0 1 0 1.215.944.944 0 0 1-.607.22.828.828 0 0 1-.606-.21z" class="cls-1" data-name="Forma 1" transform="translate(-20.05 -162.548)"/>
</svg>
