<svg xmlns="http://www.w3.org/2000/svg" viewBox="0 0 22.149 22.048">
    <defs>
        <style>
            .cls-1{fill:#fff}
        </style>
    </defs>
    <path id="Forma_1" d="M1303.175 36.4h-7.275a.457.457 0 0 1-.329-.773 16.532 16.532 0 0 1 1.31-1.207c.969-.827 1.555-1.326 1.555-2.615v-4.262a8.249 8.249 0 0 1 5.571-7.8.456.456 0 0 1 .092-.042c.014 0 .079-.025.188-.053a2.156 2.156 0 0 1 2.23-1.743 2.19 2.19 0 0 1 2.23 1.8q.143.04.285.086l.053.016.046.017a8.224 8.224 0 0 1 5.494 7.711v4.4c0 1.249.518 1.672 1.456 2.439a14.431 14.431 0 0 1 1.384 1.243.457.457 0 0 1-.329.773h-7.144c-.437 2.105-1.814 3.558-3.408 3.558s-2.973-1.448-3.409-3.548zm3.409 2.645c1.052 0 2.021-1.015 2.429-2.48h-4.859c.409 1.464 1.378 2.479 2.43 2.479zm-7.233-11.5v4.26c0 1.71-.87 2.451-1.877 3.309-.138.117-.283.24-.432.371l18.941-.166c-.166-.141-.326-.1-.477-.228-1-.818-1.793-1.463-1.793-3.146v-4.4a7.3 7.3 0 0 0-4.915-6.862 8.448 8.448 0 0 0-4.028-.2 7.292 7.292 0 0 0-5.419 7.062zm8.362-8.038a1.411 1.411 0 0 0-2.4-.039 9.252 9.252 0 0 1 1.043-.059 9.426 9.426 0 0 1 1.356.098z" class="cls-1" data-name="Forma 1" transform="translate(-1295.444 -17.909)"/>
</svg>
