<svg xmlns="http://www.w3.org/2000/svg" viewBox="0 0 29.198 28.612">
    <defs>
        <style>
            .cls-1{fill:#fff}
        </style>
    </defs>
    <path id="Forma_1" d="M36 501.564h-3.073c-.462 0-.623 0-2.2-3.9l-1.215-.494c-3.311 1.5-3.7 1.5-3.834 1.5h-.253l-.216-.186-2.176-2.129c-.331-.33-.446-.445 1.257-4.293l-.5-1.173c-4-1.432-4-1.6-4-2.07v-3.009c0-.471 0-.62 3.984-2.161l.5-1.175c-1.8-3.789-1.677-3.907-1.322-4.241l2.34-2.294.29-.009a20.4 20.4 0 0 1 3.9 1.422l1.212-.492c1.459-3.914 1.638-3.913 2.1-3.913h3.069c.46 0 .621 0 2.2 3.9l1.217.49c3.306-1.5 3.7-1.5 3.836-1.5h.251l.217.182 2.175 2.125c.33.334.444.448-1.258 4.3l.5 1.179c4 1.426 4 1.592 4 2.065v3.012c0 .461 0 .622-3.989 2.164l-.492 1.176c1.791 3.772 1.673 3.891 1.338 4.228l-2.358 2.305-.293.008a20.392 20.392 0 0 1-3.891-1.424l-1.219.493c-1.465 3.914-1.631 3.914-2.097 3.914zm-2.75-1.243h2.421c.278-.566.879-2.067 1.359-3.361l.1-.257 2.2-.89.237.1c1.314.561 2.866 1.181 3.471 1.372l1.7-1.664c-.216-.6-.871-2.064-1.462-3.3l-.119-.251.912-2.177.248-.1c1.327-.511 2.864-1.141 3.439-1.429v-2.334c-.582-.273-2.113-.856-3.432-1.324l-.258-.092-.918-2.179.11-.246c.564-1.274 1.193-2.778 1.394-3.383l-1.706-1.667c-.551.192-2.092.853-3.392 1.446l-.242.111-2.2-.888-.1-.245c-.521-1.3-1.168-2.808-1.461-3.366h-2.424c-.279.565-.878 2.067-1.358 3.359l-.1.256-2.2.893-.237-.1c-1.317-.559-2.872-1.179-3.48-1.37l-1.7 1.665c.213.6.87 2.062 1.459 3.3l.121.252-.917 2.176-.247.1c-1.325.51-2.86 1.14-3.434 1.427v2.341c.581.274 2.111.858 3.43 1.328l.257.093.918 2.172-.109.245c-.565 1.273-1.192 2.774-1.394 3.379l1.709 1.673c.549-.194 2.088-.855 3.391-1.448l.244-.112 2.2.894.1.245c.528 1.292 1.174 2.797 1.466 3.356zm1.153-8.056a5.007 5.007 0 1 1 5.1-5.008 5.064 5.064 0 0 1-5.103 5.008zm0-8.769a3.763 3.763 0 1 0 3.857 3.761 3.816 3.816 0 0 0-3.86-3.757z" class="cls-1" data-name="Forma 1" transform="translate(-19.8 -472.952)"/>
</svg>
