<svg xmlns="http://www.w3.org/2000/svg" viewBox="0 0 27.243 25.743">
    <defs>
        <style>
            .cls-1{fill:#fff}
        </style>
    </defs>
    <path id="Forma_1" d="M48.25 312.311v1.5H21.007v-25.744h1.486v24.244H48.25zm-22.559-12.506a1.712 1.712 0 0 0 .6-.113l2.752 4.349a1.987 1.987 0 1 0 3.144.6l3.614-2.665a1.582 1.582 0 0 0 2.169-.076l3.7 2.333a2.248 2.248 0 1 0 1.954-1.146 2.229 2.229 0 0 0-1.479.561l-3.782-2.388a1.609 1.609 0 1 0-3.128-.516 1.638 1.638 0 0 0 .126.63l-3.607 2.66a1.941 1.941 0 0 0-2.08-.4l-2.748-4.343a1.73 1.73 0 1 0-1.225.511z" class="cls-1" data-name="Forma 1" transform="translate(-21.007 -288.067)"/>
</svg>
