<svg xmlns="http://www.w3.org/2000/svg" viewBox="0 0 19.6 28.509">
    <defs>
        <style>
            .cls-1{fill:#fff}
        </style>
    </defs>
    <path id="Forma_1" d="M40.827 422.464v-5.345a7.127 7.127 0 0 0-14.255 0v5.345a2.676 2.676 0 0 0-2.673 2.673v10.691a2.676 2.676 0 0 0 2.673 2.673h14.255a2.676 2.676 0 0 0 2.673-2.673v-10.691a2.676 2.676 0 0 0-2.673-2.673zm-12.473-5.345a5.345 5.345 0 0 1 10.691 0v5.345h-10.69zm13.364 18.709a.892.892 0 0 1-.891.891H26.573a.892.892 0 0 1-.891-.891v-10.691a.892.892 0 0 1 .891-.891h14.254a.892.892 0 0 1 .891.891zm-7.127-5.989v-2.029a.891.891 0 0 0-1.782 0v2.029a1.782 1.782 0 1 0 1.782 0z" class="cls-1" data-name="Forma 1" transform="translate(-23.9 -409.991)"/>
</svg>
